<?xml version="1.0" encoding="UTF-8" standalone="no"?>
<!-- Created with Inkscape (http://www.inkscape.org/) -->

<svg
   version="1.1"
   id="svg1"
   width="808.1405"
   height="807.84845"
   viewBox="0 0 808.14054 807.84845"
   sodipodi:docname="截屏2026-04-22 03.18.06.png"
   inkscape:version="1.4.3 (0d15f750, 2025-12-25)"
   inkscape:dataloss="true"
   inkscape:export-filename="截屏2026-04-22 03.18.06.svg"
   inkscape:export-xdpi="96"
   inkscape:export-ydpi="96"
   xmlns:inkscape="http://www.inkscape.org/namespaces/inkscape"
   xmlns:sodipodi="http://sodipodi.sourceforge.net/DTD/sodipodi-0.dtd"
   xmlns:xlink="http://www.w3.org/1999/xlink"
   xmlns="http://www.w3.org/2000/svg"
   xmlns:svg="http://www.w3.org/2000/svg">
  <defs
     id="defs1">
    <linearGradient
       id="linearGradient242"
       inkscape:collect="always">
      <stop
         style="stop-color:#ff0000;stop-opacity:1;"
         offset="0"
         id="stop242" />
      <stop
         style="stop-color:#ff2c2c;stop-opacity:0;"
         offset="1"
         id="stop243" />
    </linearGradient>
    <radialGradient
       inkscape:collect="always"
       xlink:href="#linearGradient242"
       id="radialGradient243"
       cx="1735.6426"
       cy="1262.5059"
       fx="1735.6426"
       fy="1262.5059"
       r="63.351551"
       gradientUnits="userSpaceOnUse"
       gradientTransform="matrix(6.0754777,-0.02718192,0.02843834,6.3563246,-8873.1182,-6715.2129)" />
  </defs>
  <sodipodi:namedview
     id="namedview1"
     pagecolor="#ffffff"
     bordercolor="#000000"
     borderopacity="0.25"
     inkscape:showpageshadow="2"
     inkscape:pageopacity="0.0"
     inkscape:pagecheckerboard="0"
     inkscape:deskcolor="#d1d1d1"
     inkscape:zoom="0.22098906"
     inkscape:cx="959.3235"
     inkscape:cy="1176.5288"
     inkscape:window-width="1599"
     inkscape:window-height="891"
     inkscape:window-x="0"
     inkscape:window-y="25"
     inkscape:window-maximized="0"
     inkscape:current-layer="g1">
    <inkscape:page
       x="0"
       y="0"
       width="808.14056"
       height="807.84845"
       id="page2"
       margin="0"
       bleed="0" />
  </sodipodi:namedview>
  <g
     inkscape:groupmode="layer"
     inkscape:label="Image"
     id="g1"
     transform="translate(-1303.1143,-851.83856)">
    <path
       style="fill:#242429"
       d="m 1681.8621,1658.5981 c -81.4669,-6.3371 -154.1219,-33.0679 -215.2801,-79.2048 -2.7208,-2.0525 -6.3208,-4.7598 -8,-6.0163 -8.3015,-6.2116 -21.6132,-18.1723 -35.9546,-32.3056 -76.1075,-75.0029 -119.5485,-178.2336 -119.513,-284.0034 0.01,-17.8955 0.1817,-21.5389 1.8207,-37.7398 15.5951,-154.1515 107.6644,-278.58071 250.2604,-338.22032 34.7855,-14.54876 79.3749,-24.78251 122.6666,-28.1533 l 14.3333,-1.11603 21,0.35306 c 280.9885,4.724 470.4956,283.75329 371.4788,546.96319 -61.2833,162.9055 -231.8193,272.7444 -402.8121,259.4433 z m 44.7828,-78.2874 c 56.1329,-8.431 101.8341,-51.722 113.9943,-107.9825 l 2.0173,-9.3334 0.3541,-15.1485 0.354,-15.1485 -0.7863,-6.5182 c -1.6509,-13.6854 -6.5116,-36.9135 -8.0456,-38.4475 -0.3616,-0.3616 -2.8279,1.4906 -6.1376,4.6094 -5.614,5.2904 -19.7762,17.6978 -27.6759,24.2468 l -4.3346,3.5934 0.4165,2.4066 c 1.5557,8.9912 1.8725,14.0824 1.5185,24.4065 l -0.3886,11.3334 -1.2958,6 c -4.5359,21.0033 -15.4786,38.7668 -32.1064,52.1192 l -7,5.6211 -9.0749,4.6062 c -10.1062,5.1296 -16.7761,7.3054 -27.6117,9.0072 l -7.3134,1.1486 -9.3334,-0.3569 c -42.925,-1.6415 -78.4701,-31.7405 -86.7739,-73.4788 l -1.1937,-6 -0.016,-14.3333 -0.016,-14.3333 0.8213,-3.4768 c 1.0568,-4.4738 0.9982,-4.5892 -4.6843,-9.2247 -5.7189,-4.6651 -10.217,-8.5537 -22.5162,-19.4652 -9.538,-8.4618 -10.2966,-8.9499 -10.8801,-7 -1.1191,3.7404 -3.9401,17.3109 -5.4454,26.1961 l -1.7458,10.3039 -0.3617,13.3575 -0.3617,13.3576 0.7932,6.9758 c 6.9671,61.272 54.6117,111.3907 114.714,120.671 l 7.6667,1.1838 12.8377,0.061 12.8377,0.06 z m -158.7828,-32.6748 c 0,-0.1974 -1.7494,-2.9724 -3.8876,-6.1666 -16.9717,-25.3546 -28.009,-57.6842 -30.4328,-89.1411 -0.226,-2.9334 -0.5728,-6.4584 -0.7705,-7.8334 l -0.3596,-2.5 h -7.1122 c -11.9317,0 -29.1122,-2.3659 -41.9975,-5.7835 -7.4446,-1.9745 -7.0348,-2.2561 -6.1358,4.2171 6.0118,43.2884 33.0546,80.0076 74.088,100.5979 9.6303,4.8325 16.608,7.6094 16.608,6.6096 z m 281.9952,-0.6393 c 45.4325,-16.0296 78.9087,-56.4861 87.0552,-105.2076 1.3483,-8.0637 2.2385,-7.5891 -9.0399,-4.8198 -12.0449,2.9576 -22.2486,4.38 -35.3438,4.9272 l -10.3334,0.4318 -0.4768,3 c -0.2622,1.65 -0.9563,7.5 -1.5423,13 -3.1557,29.6167 -13.2467,58.4296 -28.5939,81.6442 -2.7795,4.2043 -5.0536,7.7293 -5.0536,7.8333 0,0.3209 0.4042,0.2226 3.3285,-0.8091 z m -134.2206,-71.7661 c 4.8049,-1.7977 9.6407,-6.241 11.9669,-10.9956 l 1.7577,-3.5927 0.8897,-6.8289 c 2.1997,-16.8842 14.9123,-34.7892 37.9444,-53.4427 2.5667,-2.0788 6.7667,-5.475 9.3334,-7.5473 42.4182,-34.2477 74.1621,-68.8953 103.8986,-113.4024 l 9.0691,-13.5739 -0.7444,-1.4261 c -0.9817,-1.8806 -20.4163,-30.6249 -24.8057,-36.6883 -9.4671,-13.0776 -12.6627,-17.3119 -19.3694,-25.6646 -18.5999,-23.165 -37.6024,-43.339 -57.3816,-60.9189 -15.5275,-13.801 -26.2734,-23.7749 -31.2501,-29.0052 -2.1897,-2.3013 -4.1858,-3.9513 -4.4356,-3.6666 -0.2498,0.2846 -2.0971,3.6675 -4.1049,7.5175 -3.833,7.3495 -7.5925,13.4408 -14.1557,22.9361 l -3.9463,5.7093 1.2797,1.4215 c 0.7038,0.7818 5.4667,5.0616 10.5842,9.5106 8.8831,7.7226 14.3642,12.5505 30.6279,26.9773 41.189,36.5372 47.9499,98.3377 15.5156,141.828 -6.8436,9.1764 -17.0688,18.5269 -37.1204,33.9449 -37.0032,28.4525 -58.2887,55.1449 -65.1161,81.6566 l -1.635,6.3491 0.2425,7 0.2425,7 1.5011,3.3333 c 2.0366,4.5225 6.2872,8.7627 11.104,11.0771 l 4,1.9219 5.1416,5e-4 5.1417,5e-4 z m -52.7069,-67.069 c 2.7828,-6.6456 7.4055,-14.218 13.863,-22.7087 3.1548,-4.1481 5.736,-7.9648 5.736,-8.4816 0,-1.1584 -15.0817,-14.6337 -28.3608,-25.34 -45.2238,-36.4618 -59.7216,-80.5548 -41.8443,-127.2639 7.5773,-19.7978 16.2675,-30.6763 42.5384,-53.2507 30.1571,-25.9136 42.7837,-38.1448 52.1069,-50.4751 11.8338,-15.6506 18.8715,-30.754 21.9259,-47.0545 l 1.1068,-5.9065 -0.2611,-6.6762 -0.2611,-6.6761 -1.749,-3.7835 c -2.3098,-4.9966 -6.5045,-9.444 -10.9665,-11.6271 l -3.6202,-1.7711 -4.5241,-0.3237 -4.5242,-0.3237 -3.6679,1.0663 c -9.873,2.8701 -15.3918,11.2228 -16.4988,24.9712 l -0.5737,7.1249 -2.1179,6.3333 c -5.8708,17.5559 -19.0728,33.258 -52.3785,62.2974 -34.0122,29.6555 -63.2781,64.0715 -95.4464,112.2424 l -9.4869,14.2064 0.5822,1.5314 c 0.7162,1.8837 3.7401,6.6866 11.5778,18.3891 26.3833,39.393 59.0799,74.685 99.1311,107 8.8382,7.1311 20.7894,17.319 22.5952,19.2614 2.3798,2.5601 3.0385,2.2047 5.1181,-2.7614 z m -128.8618,-6.8333 c 1.6551,-13.3029 4.0835,-27.5153 6.208,-36.3334 1.325,-5.5 2.7335,-11.4263 3.1299,-13.1697 l 0.7208,-3.1698 -2.3707,-2.4969 c -5.7952,-6.1036 -20.3583,-25.263 -31.7334,-41.7488 -4.2043,-6.0933 -4.8151,-6.202 -7.0105,-1.2481 -5.9305,13.3821 -11.5414,28.3214 -14.7997,39.4045 -1.2242,4.1641 -2.5419,7.8872 -2.9283,8.2736 l -0.7025,0.7025 -4.1931,-2.1945 c -56.9647,-29.8135 -70.491,-101.2104 -28.5479,-150.6861 l 1.978,-2.3333 -3.3113,-10.2075 c -3.6603,-11.2832 -8.6452,-29.9906 -8.6452,-32.4442 0,-4.8877 -1.0996,-4.7262 -8,1.1749 -27.2962,23.3435 -45.1417,56.2055 -49.7215,91.5611 l -1.1117,8.5823 0.3824,12.6667 0.3825,12.6667 1.3394,6.5451 c 14.153,69.1571 74.3006,119.7255 141.3956,118.8768 l 7,-0.089 z m 374.6614,2.7124 c 11.9967,-2.0861 26.9194,-6.2325 28.6465,-7.9596 l 0.6443,-0.6443 -1.0993,-8.2209 c -3.3374,-24.9572 -13.0921,-57.2358 -25.0136,-82.7707 -3.3233,-7.1182 -3.1043,-7.1639 -9.2522,1.9299 -4.4252,6.5456 -11.6944,16.4086 -19.1263,25.9512 -1.4667,1.8832 -3.5598,4.6041 -4.6514,6.0463 -1.0916,1.4423 -3.5874,4.4793 -5.5461,6.7488 l -3.5614,4.1265 1.3705,4.8843 c 3.8993,13.8963 6.4842,27.7972 9.1352,49.1278 l 0.3644,2.9317 10.111,-0.3914 c 5.5611,-0.2154 13.6514,-1.0072 17.9784,-1.7596 z m 65.0698,-27.841 c 35.5632,-26.6431 57.1641,-69.5367 57.0091,-113.2048 l -0.043,-12 -1.1817,-7.6666 c -10.6917,-69.3656 -67.4239,-120.1519 -137.523,-123.1099 l -10.1345,-0.4276 -0.6372,1.6021 c -0.3505,0.8811 -0.985,4.902 -1.41,8.9354 -1.2668,12.0219 -3.2367,22.5649 -6.8202,36.5011 l -3.3858,13.1678 3.5002,4.4989 c 7.5657,9.7243 28.1266,37.413 31.9299,42.9988 3.5325,5.1882 2.788,6.116 13.2397,-16.5 3.3712,-7.2947 9.0929,-22.1113 13.2001,-34.1817 0.7108,-2.0891 2.6194,-1.4325 9.8216,3.3789 23.478,15.6843 39.5218,39.5435 43.9228,65.3189 l 1.3917,8.1506 -0.3504,12.6667 -0.3503,12.6666 -1.6593,7.0309 c -3.7159,15.745 -11.4789,30.228 -22.927,42.7739 -3.3515,3.6729 -3.3968,4.0678 -1.1679,10.1981 2.6264,7.2237 6.7038,23.5302 9.3761,37.4971 0.3742,1.9558 1.279,1.8921 4.1987,-0.2952 z m -261.4713,-106.1898 c 0.93,-0.7316 1.9218,-1.1874 2.204,-1.013 0.2821,0.1743 0.4735,-0.055 0.4253,-0.5091 -0.048,-0.4544 0.4634,-2.4122 1.137,-4.3506 l 1.2246,-3.5244 -2.7121,-3.5922 c -1.4917,-1.9757 -3.3195,-3.7849 -4.0617,-4.0205 -0.7423,-0.2356 -1.3496,-0.7468 -1.3496,-1.136 v -0.7076 l -3.4926,0.4633 c -3.8485,0.5105 -7.603,2.482 -8.0776,4.2416 -1.0904,4.042 -1.3572,5.2816 -1.3916,6.4669 -0.055,1.8864 3.2462,7.9871 4.3637,8.0644 0.5123,0.035 1.3815,0.2457 1.9315,0.4673 3.4477,1.389 7.3869,1.0473 9.7991,-0.8501 z m -201.8115,-44.8361 c 4.3729,-6.5131 23.9574,-32.7182 29.9431,-40.0655 l 4.2527,-5.22 -2.0602,-7.1134 c -3.8841,-13.4111 -7.1732,-30.0056 -8.8094,-44.4466 -0.9499,-8.3835 -0.4818,-8.0207 -10.1856,-7.8935 -18.1304,0.2375 -50.6118,7.7013 -52.2651,12.0097 -0.6802,1.7728 4.5631,25.0505 8.1712,36.2759 3.0205,9.3973 9.9871,28.6765 11.6625,32.2745 0.6829,1.4667 3.3247,7.3878 5.8707,13.1581 8.2918,18.7929 8.2339,18.7453 13.4201,11.0208 z m 79.8155,-95.5122 c 11.5672,-10.84 22.4894,-20.9111 25.4998,-23.5127 l 2.3028,-1.9902 -1.1395,-10.5819 c -0.6268,-5.82 -1.1381,-15.727 -1.1362,-22.0156 v -11.4338 l 1.2958,-7.5797 c 17.2354,-100.81415 157.5233,-103.68857 179.5235,-3.6784 l 1.4941,6.7923 -0.026,17.3333 -0.026,17.3334 -1.1636,6.6666 -1.1636,6.6667 5.6394,5.3333 c 3.1017,2.9334 10.8059,10.1334 17.1204,16 6.3145,5.8667 12.2071,11.3417 13.0947,12.1667 2.643,2.4566 3.2818,1.9338 4.8864,-4 4.9199,-18.1937 6.9921,-35.3333 6.9921,-57.8333 v -18.3334 l -1.2315,-7.3333 c -10.4208,-62.05786 -54.4449,-108.43907 -112.1019,-118.10405 l -7.3333,-1.22928 h -16.6667 -16.6666 l -6.6667,1.25461 c -57.6994,10.85847 -101.6746,58.11422 -111.1223,119.41202 l -1.4385,9.3334 -0.02,14.3333 -0.02,14.3333 1.1822,9.6667 c 1.8866,15.4257 5.2331,33.0841 7.432,39.2159 0.5835,1.6271 2.1611,0.4957 11.457,-8.2159 z m -117.949,-36.9618 c 6.769,-2.0766 18.0594,-4.7744 27.1459,-6.4864 2.9333,-0.5527 11.3333,-1.203 18.6667,-1.445 l 13.3333,-0.4401 0.1557,-3.3334 c 1.2737,-27.2584 4.4998,-48.8681 9.5858,-64.2092 1.766,-5.3267 2.3217,-5.0178 -9.6046,-5.3382 -36.2207,-0.9732 -63.8062,21.3825 -68.5418,55.5474 l -0.7393,5.3334 0.4613,10.5911 c 0.5,11.4784 0.7085,12.6696 2.123,12.1268 0.5141,-0.1973 3.8504,-1.2531 7.414,-2.3464 z m 478.4246,0.4618 c 7.2,-35.5125 -13.0708,-70.2403 -46.6821,-79.9755 l -5.2633,-1.5245 h -12.8003 -12.8003 l -0.7738,0.7741 -0.7738,0.7741 1.3794,4.2259 c 5.0343,15.4235 8.3917,36.9382 8.9918,57.6198 0.1286,4.4334 0.4488,8.4084 0.7114,8.8334 l 0.4776,0.7727 h 11.0418 c 15.3559,0 35.9922,3.5331 50.2129,8.5969 4.8671,1.7332 5.9109,1.7171 6.2787,-0.097 z"
       id="path238" />
    <ellipse
       style="fill:none"
       id="path239"
       cx="1698.0673"
       cy="1251.1931"
       rx="13.575333"
       ry="11.312778" />
    <ellipse
       style="fill:none"
       id="path240"
       cx="1691.2795"
       cy="1251.1931"
       rx="29.413221"
       ry="24.888109" />
    <ellipse
       style="fill:none"
       id="path241"
       cx="1695.8047"
       cy="1257.9808"
       rx="11.312778"
       ry="22.625555" />
    <circle
       style="fill:url(#radialGradient243)"
       id="path242"
       cx="1707.6426"
       cy="1262.5059"
       r="63.351551" />
  </g>
</svg>
